v -31.135802999999999 -13.230604 -12.171946999999999
v 31.234240999999994 -13.230604 -12.171946999999999
v 31.234240999999994 49.139439999999993 -12.171946999999999
v -31.135802999999999 49.139439999999993 -12.171946999999999
v -31.135802999999999 -13.230604 50.19809699999999
v 31.234240999999994 -13.230604 50.19809699999999
v 31.234240999999994 49.139439999999993 50.19809699999999
v -31.135802999999999 49.139439999999993 50.19809699999999
f 1 4 3 2
f 5 6 7 8
f 1 2 6 5
f 2 3 7 6
f 3 4 8 7
f 4 1 5 8
